<svg xmlns="http://www.w3.org/2000/svg" width="20" height="20" viewBox="0 0 20 20">
  <g id="시간_icon" transform="translate(-0.102 -0.032)">
    <rect id="사각형_27930" data-name="사각형 27930" width="20" height="20" transform="translate(0.102 0.032)" fill="none"/>
    <g id="타원_595" data-name="타원 595" transform="translate(0.828 0.828)" fill="none" stroke="#000" stroke-width="1">
      <circle cx="9.107" cy="9.107" r="9.107" stroke="none"/>
      <circle cx="9.107" cy="9.107" r="8.607" fill="none"/>
    </g>
    <g id="합치기_130" data-name="합치기 130" transform="translate(4.968 5.796)">
      <path d="M 5.744140148162842 5.749203205108643 L 0.2500002980232239 5.749203205108643 L 0.2500002980232239 4.748173236846924 L 4.496090412139893 4.748173236846924 L 4.746090412139893 4.748173236846924 L 4.746090412139893 4.498173236846924 L 4.746090412139893 0.2500032782554626 L 5.744140148162842 0.2500032782554626 L 5.744140148162842 4.498173236846924 L 5.744140148162842 5.749203205108643 Z" stroke="none"/>
      <path d="M 5.494140148162842 5.499203205108643 L 5.494140148162842 0.5000032782554626 L 4.996090412139893 0.5000032782554626 L 4.996090412139893 4.998173236846924 L 0.5000002980232239 4.998173236846924 L 0.5000002980232239 5.499203205108643 L 5.494140148162842 5.499203205108643 M 5.994140148162842 5.999203205108643 L 3.12499992105586e-07 5.999203205108643 L 3.12499992105586e-07 4.498173236846924 L 4.496090412139893 4.498173236846924 L 4.496090412139893 3.271484274591785e-06 L 5.994140148162842 3.271484274591785e-06 L 5.994140148162842 5.999203205108643 Z" stroke="none" fill="#000"/>
    </g>
  </g>
</svg>
